<svg width="1024" height="1024" viewBox="0 0 1024 1024" fill="none" xmlns="http://www.w3.org/2000/svg">
  <defs>
    <linearGradient id="bg" x1="128" y1="128" x2="896" y2="896" gradientUnits="userSpaceOnUse">
      <stop offset="0" stop-color="#0A4E86"/>
      <stop offset="0.55" stop-color="#146EA5"/>
      <stop offset="1" stop-color="#1E96B5"/>
    </linearGradient>
    <radialGradient id="shine" cx="0" cy="0" r="1" gradientUnits="userSpaceOnUse" gradientTransform="translate(812 210) rotate(129.806) scale(350.193)">
      <stop stop-color="#FFFFFF" stop-opacity="0.42"/>
      <stop offset="1" stop-color="#FFFFFF" stop-opacity="0"/>
    </radialGradient>
    <filter id="softShadow" x="192" y="150" width="640" height="716" filterUnits="userSpaceOnUse" color-interpolation-filters="sRGB">
      <feFlood flood-opacity="0" result="BackgroundImageFix"/>
      <feColorMatrix in="SourceAlpha" type="matrix" values="0 0 0 0 0 0 0 0 0 0 0 0 0 0 0 0 0 0 127 0" result="hardAlpha"/>
      <feOffset dy="16"/>
      <feGaussianBlur stdDeviation="16"/>
      <feComposite in2="hardAlpha" operator="out"/>
      <feColorMatrix type="matrix" values="0 0 0 0 0.028 0 0 0 0 0.219 0 0 0 0 0.377 0 0 0 0.26 0"/>
      <feBlend mode="normal" in2="BackgroundImageFix" result="effect1_dropShadow_1_1"/>
      <feBlend mode="normal" in="SourceGraphic" in2="effect1_dropShadow_1_1" result="shape"/>
    </filter>
  </defs>

  <rect x="64" y="64" width="896" height="896" rx="206" fill="url(#bg)"/>
  <rect x="64" y="64" width="896" height="896" rx="206" fill="url(#shine)"/>

  <circle cx="256" cy="808" r="186" fill="#FFFFFF" fill-opacity="0.08"/>
  <circle cx="814" cy="252" r="220" fill="#FFFFFF" fill-opacity="0.06"/>

  <g filter="url(#softShadow)">
    <rect x="256" y="184" width="512" height="588" rx="54" fill="#F7FCFF"/>
    <path d="M628 184L768 324H682C652.177 324 628 299.823 628 270V184Z" fill="#D8ECF7"/>
  </g>

  <rect x="324" y="320" width="176" height="26" rx="13" fill="#C8DCE8"/>
  <rect x="324" y="370" width="376" height="24" rx="12" fill="#D6E6F0"/>
  <rect x="324" y="416" width="320" height="24" rx="12" fill="#D6E6F0"/>
  <rect x="324" y="462" width="356" height="24" rx="12" fill="#D6E6F0"/>
  <rect x="324" y="508" width="286" height="24" rx="12" fill="#D6E6F0"/>

  <rect x="324" y="572" width="376" height="84" rx="18" fill="#E6F3FA"/>
  <rect x="348" y="598" width="150" height="16" rx="8" fill="#97BED3"/>
  <rect x="348" y="626" width="206" height="14" rx="7" fill="#B8D4E3"/>

  <circle cx="656" cy="614" r="30" fill="#11A276"/>
  <path d="M642 614L652 624L672 604" stroke="#FFFFFF" stroke-width="8" stroke-linecap="round" stroke-linejoin="round"/>

  <rect x="278" y="784" width="468" height="70" rx="35" fill="#0B5E93"/>
  <text x="512" y="829" text-anchor="middle" fill="#EAF7FF" font-family="Arial, Helvetica, sans-serif" font-size="42" font-weight="700" letter-spacing="1.2">
    ONE STOP RESUME
  </text>
</svg>
